<svg xmlns="http://www.w3.org/2000/svg" width="370" height="5" viewBox="0 0 370 5">
    <g fill="none" fill-rule="evenodd">
        <path fill="#0082D5" d="M779-5h20L789 5h-20l10-10zm-60 0h20L729 5h-20l10-10zm-60 0h20L669 5h-20l10-10zm-60 0h20L609 5h-20l10-10zM299-5h20L309 5h-20l10-10zm-60 0h20L249 5h-20l10-10zm-60 0h20L189 5h-20l10-10zm-60 0h20L129 5h-20l10-10zm-480 0h20l-10 10h-20l10-10zm60 0h20l-10 10h-20l10-10zm60 0h20l-10 10h-20l10-10zm60 0h20l-10 10h-20l10-10zm60 0h20l-10 10h-20l10-10zm60 0h20L-51 5h-20l10-10zm60 0h20L9 5h-20L-1-5zm60 0h20L69 5H49L59-5zm300 0h20L369 5h-20l10-10zm60 0h20L429 5h-20l10-10zm60 0h20L489 5h-20l10-10zm60 0h20L549 5h-20l10-10z"/>
        <path fill="#D2335C" d="M749-5h20L759 5h-20l10-10zm-60 0h20L699 5h-20l10-10zm-60 0h20L639 5h-20l10-10zm-60 0h20L579 5h-20l10-10zM269-5h20L279 5h-20l10-10zm-60 0h20L219 5h-20l10-10zm-60 0h20L159 5h-20l10-10zM89-5h20L99 5H79L89-5zm-480 0h20l-10 10h-20l10-10zm60 0h20l-10 10h-20l10-10zm60 0h20l-10 10h-20l10-10zm60 0h20l-10 10h-20l10-10zm60 0h20l-10 10h-20l10-10zm60 0h20L-81 5h-20l10-10zm60 0h20L-21 5h-20l10-10zm60 0h20L39 5H19L29-5zm300 0h20L339 5h-20l10-10zm60 0h20L399 5h-20l10-10zm60 0h20L459 5h-20l10-10zm60 0h20L519 5h-20l10-10z"/>
    </g>
</svg>
