<svg xmlns="http://www.w3.org/2000/svg" xmlns:xlink="http://www.w3.org/1999/xlink" width="770" height="450" viewBox="0 0 770 450">
    <defs>
        <linearGradient id="b" x1="50%" x2="50%" y1="0%" y2="100%">
            <stop offset="0%" stop-color="#3B3D43"/>
            <stop offset="100%" stop-color="#3C4561"/>
        </linearGradient>
        <rect id="a" width="770" height="450" rx="5"/>
    </defs>
    <g fill="none" fill-rule="evenodd">
        <mask id="c" fill="#fff">
            <use xlink:href="#a"/>
        </mask>
        <use fill="url(#b)" xlink:href="#a"/>
        <g mask="url(#c)" opacity=".2" style="mix-blend-mode:luminosity">
            <path fill="#FFF" d="M381.327 83.465c-.18-9.32-.07-18.669-.55-27.98-.03-.57-.948-.529-.992.025-.742 9.2-.713 18.478-.758 27.702-.044 9.354-.201 18.736.63 28.061.103 1.166 2.027 1.122 2.063-.051.289-9.253-.215-18.506-.393-27.757M359.03 115.538c-1.53-6.244-3.755-12.134-6.35-18.006a146.949 146.949 0 0 0-4.61-9.5c-1.442-2.717-2.863-5.833-4.98-8.081-.25-.266-.699.01-.603.35.742 2.651 2.308 5.11 3.473 7.604a223.117 223.117 0 0 1 4.165 9.431c2.532 6.153 4.655 12.493 6.896 18.755.448 1.252 2.333.766 2.01-.553M327.844 117.496c-4.153-5.37-8.313-10.716-12.622-15.96l-6.447-7.845c-1.18-1.435-2.676-4.578-4.798-4.465-.253.013-.394.184-.423.424l-.04.317c-.017.14.088.254.188.328l.295.22c.115.086.307.047.4-.051l.159-.167c.014-.014.02-.03.03-.046 2.881 3.382 20.587 25.913 22.407 28.094.504.604 1.313-.252.85-.85M302.702 131.007c-5.6-5.082-11.956-9.701-18.811-12.94a.741.741 0 0 0-.748 1.279c6.086 4.327 12.227 8.507 18.143 13.077.99.765 2.397-.525 1.416-1.416M295.763 157.974c-15.708-5.477-31.293-11.394-46.608-17.89-.963-.407-1.802 1.003-.829 1.419 15.448 6.597 31.11 12.538 47.107 17.668.768.246 1.079-.936.33-1.197M264.405 175.148c-5.179-.701-10.398-1.058-15.623-1.147-.752-.013-.951 1.214-.181 1.336 5.15.823 10.347 1.408 15.558 1.62 1.024.041 1.283-1.668.246-1.81M399.24 115.538c1.53-6.244 3.755-12.134 6.349-18.006a146.949 146.949 0 0 1 4.611-9.5c1.441-2.717 2.863-5.833 4.98-8.081.25-.266.698.01.603.35-.742 2.651-2.309 5.11-3.473 7.604a222.212 222.212 0 0 0-4.165 9.431c-2.532 6.153-4.655 12.493-6.896 18.755-.448 1.252-2.333.766-2.01-.553M430.426 117.496c4.153-5.37 8.312-10.716 12.622-15.96l6.446-7.845c1.18-1.435 2.676-4.578 4.798-4.465.253.013.395.184.425.424l.039.317c.017.14-.089.254-.188.328l-.295.22c-.115.086-.308.047-.4-.051a18.304 18.304 0 0 0-.16-.167c-.013-.014-.019-.03-.03-.046-2.88 3.382-20.587 25.913-22.407 28.094-.504.604-1.312-.252-.85-.85M458.612 129.565c5.6-5.082 11.956-9.701 18.812-12.94a.742.742 0 0 1 .748 1.28c-6.087 4.326-12.227 8.507-18.143 13.076-.99.765-2.398-.525-1.417-1.416M462.506 157.974c15.708-5.477 31.293-11.394 46.609-17.89.962-.407 1.801 1.003.828 1.419-15.447 6.597-31.11 12.538-47.106 17.668-.769.246-1.08-.936-.33-1.197M493.865 175.148c5.178-.701 10.398-1.058 15.623-1.147.752-.013.951 1.214.181 1.336-5.15.823-10.347 1.408-15.559 1.62-1.024.041-1.282-1.668-.245-1.81M376.943 363.507c.179 9.32.07 18.669.55 27.98.03.57.947.528.993-.025.74-9.2.712-18.479.756-27.703.045-9.353.202-18.735-.629-28.06-.103-1.166-2.027-1.122-2.063.051-.29 9.253.214 18.505.393 27.757M399.24 331.434c1.53 6.243 3.755 12.133 6.349 18.005a146.773 146.773 0 0 0 4.611 9.5c1.441 2.717 2.863 5.833 4.98 8.082.25.266.698-.01.603-.351-.742-2.65-2.309-5.11-3.473-7.603a222.24 222.24 0 0 1-4.165-9.432c-2.532-6.152-4.655-12.492-6.896-18.754-.448-1.252-2.333-.767-2.01.553M430.426 329.475c4.153 5.37 8.312 10.717 12.622 15.96l6.446 7.846c1.18 1.434 2.676 4.577 4.798 4.465.253-.014.395-.185.425-.424l.039-.318c.017-.14-.089-.254-.188-.328-.099-.073-.198-.146-.295-.22-.115-.086-.308-.046-.4.052l-.16.166c-.013.015-.019.032-.03.047-2.88-3.383-20.587-25.913-22.407-28.095-.504-.603-1.312.252-.85.85M455.568 315.964c5.6 5.083 11.956 9.702 18.81 12.94a.742.742 0 0 0 .75-1.279c-6.088-4.326-12.228-8.507-18.144-13.076-.99-.765-2.398.525-1.416 1.415M462.506 288.998c15.708 5.476 31.293 11.393 46.609 17.889.962.408 1.801-1.003.828-1.418-15.447-6.598-31.11-12.539-47.106-17.668-.769-.246-1.08.936-.33 1.197M493.865 271.823c5.178.702 10.398 1.059 15.623 1.147.752.014.951-1.214.181-1.336-5.15-.822-10.347-1.407-15.559-1.62-1.024-.041-1.282 1.67-.245 1.81M359.03 331.434c-1.53 6.243-3.755 12.133-6.35 18.005a146.773 146.773 0 0 1-4.61 9.5c-1.442 2.717-2.863 5.833-4.98 8.082-.25.266-.699-.01-.603-.351.742-2.65 2.308-5.11 3.473-7.603a223.145 223.145 0 0 0 4.165-9.432c2.532-6.152 4.655-12.492 6.896-18.754.448-1.252 2.333-.767 2.01.553M327.844 329.475c-4.153 5.37-8.313 10.717-12.622 15.96l-6.447 7.846c-1.18 1.434-2.676 4.577-4.798 4.465-.253-.014-.394-.185-.423-.424l-.04-.318c-.017-.14.088-.254.188-.328l.295-.22c.115-.086.307-.046.4.052l.159.166c.014.015.02.032.03.047 2.881-3.383 20.587-25.913 22.407-28.095.504-.603 1.313.252.85.85M302.702 315.964c-5.6 5.083-11.956 9.702-18.811 12.94a.741.741 0 0 1-.748-1.279c6.086-4.326 12.227-8.507 18.143-13.076.99-.765 2.397.525 1.416 1.415M295.763 288.998c-15.708 5.476-31.293 11.393-46.608 17.889-.963.408-1.802-1.003-.829-1.418 15.448-6.598 31.11-12.539 47.107-17.668.768-.246 1.079.936.33 1.197M264.405 271.823c-5.179.702-10.398 1.059-15.623 1.147-.752.014-.951-1.214-.181-1.336 5.15-.822 10.347-1.407 15.558-1.62 1.024-.041 1.283 1.67.246 1.81"/>
            <path fill="#F58B35" d="M395.482 90.213c-1.678 0-1.678 2.6 0 2.6 1.679 0 1.679-2.6 0-2.6M421.7 109.576a1.994 1.994 0 0 0-1.975 1.975c0 1.077.898 1.976 1.976 1.976a1.994 1.994 0 0 0 1.976-1.976 1.994 1.994 0 0 0-1.976-1.975M441.75 86.118c-1.988 0-1.988 3.083 0 3.083 1.99 0 1.99-3.083 0-3.083M474.138 99.292c-1.896 0-1.896 2.939 0 2.939s1.896-2.939 0-2.939M476.146 139.602c-.774-.773-2.3-.905-3.051 0l-.088.105c-.746.898-.883 2.148 0 3.032.884.882 2.135.745 3.033 0 .035-.03.07-.059.106-.087.905-.753.773-2.277 0-3.05M510.382 154.012c-1.171 0-1.757 1.233-1.27 2.21.144.288.3.539.52.778.378.413 1.121.413 1.5 0 .219-.24.375-.49.518-.778.488-.977-.097-2.21-1.268-2.21M475.68 177.373c-1.585 0-1.585 2.457 0 2.457 1.586 0 1.586-2.457 0-2.457M529.267 202.75c-.522-.629-1.342-.939-2.163-.712a2.09 2.09 0 0 0-1.522 1.996c0 .921.633 1.753 1.522 1.998.821.225 1.64-.084 2.163-.713.748-.67.748-1.899 0-2.57M477.33 274.245c-.393-.605-1.23-.914-1.88-.492a3.17 3.17 0 0 1-.353.187c-.756.359-.756 1.637 0 1.996.123.059.239.113.353.187.65.421 1.487.112 1.88-.493.29-.447.29-.937 0-1.385M499.586 314.846c-3.201 0-3.201 4.96 0 4.96s3.201-4.96 0-4.96M464.113 309.185c-.793 0-1.357.769-1.162 1.524l.186.72c.25.967 1.702.967 1.952 0l.186-.72c.196-.755-.369-1.524-1.162-1.524M456.402 334.233a2.383 2.383 0 0 0-2.362 2.36c0 1.287 1.075 2.36 2.362 2.36a2.382 2.382 0 0 0 2.362-2.36 2.383 2.383 0 0 0-2.362-2.36M420.93 336.207c-1.492 0-1.492 2.313 0 2.313s1.492-2.313 0-2.313M404.736 376.26c-1.485 0-2.723 1.237-2.723 2.721 0 1.483 1.238 2.722 2.723 2.722 1.484 0 2.723-1.239 2.723-2.722 0-1.484-1.239-2.721-2.723-2.721M391.627 349.358c-1.43 0-1.43 2.215 0 2.215s1.43-2.215 0-2.215M363.095 363.529c-.05 0-.05.077 0 .077s.05-.077 0-.077M363.736 361.373c-.647-.014-1.2.652-.812 1.283l.022.037a.181.181 0 0 0 .252.252l.037.022c.632.387 1.298-.164 1.285-.81.058-.489-.297-.843-.784-.784M331.478 373.587c-3.978 0-3.978 6.165 0 6.165s3.978-6.165 0-6.165M336.105 334.619c-1.554 0-1.554 2.407 0 2.407s1.554-2.407 0-2.407M299.861 335.678c-3.17 0-3.17 4.913 0 4.913s3.17-4.913 0-4.913M299.861 296.012c-4.631 0-4.631 7.177 0 7.177 4.632 0 4.632-7.177 0-7.177M268.91 321.882c-.105-.196-.21-.392-.313-.589-.45-.847-1.798-.847-2.247 0l-.312.59c-.584 1.1.135 2.5 1.435 2.5 1.301 0 2.02-1.4 1.436-2.5M278.642 277.607c-.644-.377-1.652-.464-2.287 0l-.54.395c-.529.388-.895.872-.895 1.56 0 .688.366 1.172.895 1.56.18.131.36.264.54.394.635.465 1.643.378 2.287 0a2.281 2.281 0 0 0 1.122-1.954c0-.798-.434-1.552-1.122-1.955M238.27 287.226c-.184-.313-.507-.58-.756-.842-.47-.496-1.299-.473-1.772 0-.473.473-.496 1.3 0 1.77.263.249.53.572.843.755.487.285 1.135.274 1.547-.137.412-.411.423-1.06.138-1.546M248.966 239.293c-1.786 0-3.277 1.49-3.277 3.276 0 1.786 1.491 3.275 3.277 3.275s3.278-1.49 3.278-3.275-1.492-3.276-3.278-3.276M260.156 214.914a1.36 1.36 0 0 0-1.165-.668 1.36 1.36 0 0 0-1.165.668c-.266.452-.202.907 0 1.361l.27.613c.3.679 1.49.679 1.79 0l.27-.613c.2-.454.266-.91 0-1.361M275.185 167.426c-2.486 0-2.486 3.854 0 3.854 2.487 0 2.487-3.854 0-3.854M246.653 159.286c-2.05 0-2.05 3.179 0 3.179 2.051 0 2.051-3.179 0-3.179M274.405 130.338c-1.462 0-2.683 1.22-2.683 2.682 0 1.46 1.22 2.68 2.683 2.68 1.462 0 2.683-1.22 2.683-2.68 0-1.462-1.22-2.682-2.683-2.682M289.836 98.714c-1.646 0-1.646 2.554 0 2.554 1.648 0 1.648-2.554 0-2.554M315.284 112.587c-3.637 0-3.637 5.636 0 5.636s3.637-5.636 0-5.636M329.695 88.149l-.034-.05a2.368 2.368 0 0 0-1.267-1.21 3.476 3.476 0 0 0-3.446.015c-1.63.955-2.202 3.114-1.246 4.745.956 1.629 3.115 2.201 4.749 1.244 1.554-.91 2.3-3.173 1.244-4.744M344.587 112.533c-.772 0-1.533.677-1.485 1.485.02.332.081.66.137.988.23 1.338 2.467 1.338 2.696 0 .056-.329.118-.656.137-.988.049-.808-.712-1.485-1.485-1.485M369.004 72.914l-.553-.374c-.926-.628-2.176.208-2.176 1.247 0 1.04 1.25 1.876 2.176 1.248l.553-.374c.65-.44.65-1.306 0-1.747M366.95 100.377c-2.486 0-2.486 3.852 0 3.852s2.486-3.852 0-3.852"/>
            <path stroke="#A7A7A7" stroke-linecap="round" stroke-linejoin="round" stroke-width="2" d="M173.192 32.372c-3.694 2.016-83.11 58.25-83.969 62.884-.86 4.632 10.666 19.16 12.886 20.563 2.22 1.403 83.904-62.235 84.84-63.713.935-1.48-11.12-21.174-13.757-19.734zM165.976 38.032a48.545 48.545 0 0 1 3.75 4.503M153.39 46.469a48.645 48.645 0 0 1 3.748 4.503M138.483 57.753a48.645 48.645 0 0 1 3.749 4.504M124.59 67.436a48.425 48.425 0 0 1 3.749 4.503M110.8 78.047a48.434 48.434 0 0 1 3.75 4.503M97.012 88.658a48.246 48.246 0 0 1 3.748 4.502M160.348 42.153a48.462 48.462 0 0 1 3.75 4.503M146.293 51.82a48.553 48.553 0 0 1 3.75 4.503M131.793 62.326a48.544 48.544 0 0 1 3.75 4.503M118.449 72.096a48.326 48.326 0 0 1 3.749 4.503M104.069 83.368a48.345 48.345 0 0 1 3.748 4.504M161.098 58.94a4489.014 4489.014 0 0 1-43.596 33.133M577.04 223.07c2.488 3.392 68.764 74.628 73.473 74.867 4.708.238 17.593-13.101 18.69-15.486 1.098-2.385-72.82-74.888-74.41-75.618-1.592-.732-19.53 13.815-17.753 16.237zM583.607 229.47a48.5 48.5 0 0 1 3.97-4.31M593.64 240.823a48.492 48.492 0 0 1 3.97-4.309M606.804 254.097a48.395 48.395 0 0 1 3.97-4.309M618.245 266.58a48.589 48.589 0 0 1 3.969-4.31M630.592 278.836a48.597 48.597 0 0 1 3.97-4.309M642.94 291.094a48.387 48.387 0 0 1 3.969-4.31M588.44 234.5a48.387 48.387 0 0 1 3.97-4.31M599.886 247.145a48.387 48.387 0 0 1 3.97-4.309M612.223 260.12a48.5 48.5 0 0 1 3.97-4.309M623.679 272.047a48.387 48.387 0 0 1 3.97-4.309M636.76 284.802a48.299 48.299 0 0 1 3.97-4.309M604.99 231.537a4497.978 4497.978 0 0 1 38.627 38.806M11.683 147.323c-2.461-3.885 8.861-10.002 13.82-9.441 4.959.561 44.837 70.76 46.47 72.72 0 0-4.886 8.503-12.955 9.308 0 0-42.353-64.725-47.335-72.587zM22.262 162.73s3.657-4.992 14.32-9.074"/>
            <path stroke="#A7A7A7" stroke-linecap="round" stroke-linejoin="round" stroke-width="2" d="M14.024 140.984s-6.427-4.318-2.136-8.08c4.29-3.762 8.324 5.132 8.324 5.132M59.017 219.91s10.725 9.189 13.704 9.835c0 0 2.211-1.449 4.09-2.183 0 0-2.688-13.086-4.838-16.959"/>
            <path stroke="#A7A7A7" stroke-linecap="round" stroke-linejoin="round" stroke-width="2" d="M72.72 229.745s5.73 5.533 6.061 4.817c.333-.714-1.969-7-1.969-7M41.59 193.166s8.402-1.52 13.92-8.793M548.848 403.412c3.972-2.838 11.134 8.786 10.835 14.072-.3 5.284-72.34 51.706-74.321 53.552 0 0-9.305-4.666-10.64-13.164 0 0 66.088-48.714 74.126-54.46zM533.145 415.536s5.511 3.574 10.476 14.621"/>
            <path stroke="#A7A7A7" stroke-linecap="round" stroke-linejoin="round" stroke-width="2" d="M555.707 405.513s4.195-7.063 8.439-2.745c4.245 4.319-4.943 9.121-4.943 9.121M502.033 437.82s2.114 8.807 10.153 14.216M406.696 53.026c2.26 1.123 17.017-7.899 18.021-9.413 1.005-1.513 40.647-63.185 40.963-65.13.315-1.944-6.043-12.236-15.14-10.317 0 0-42.435 61.897-43.055 65.23-.621 3.333-3.414 18.327-.79 19.63zM414.846 49.558s-2.13-5.335-8.682-5.32M424.718 43.613s-6.49-10.711-17.233-10.217M421.468 38.536l40.835-65.83M455.404-31.046l-41.099 64.989M33.537 407.23c1.99 1.552 18.253-4.344 19.54-5.627 1.286-1.283 52.45-53.805 53.147-55.647.697-1.843-3.478-13.196-12.775-13.13 0 0-53.945 52.185-55.218 55.326-1.274 3.142-7.005 17.278-4.694 19.079zM42.217 405.458s-1.022-5.652-7.445-6.944M53.076 401.603s-4.218-11.791-14.845-13.45M50.906 395.98l53.163-56.358M98.058 334.568l-53.253 55.48M552.689 83.6c-1.112 3.089 71.083 71.16 73.861 70.093 2.78-1.066-30.192-108.657-31.543-110.38-1.35-1.72-41.426 37.81-42.318 40.288z"/>
            <path stroke="#A7A7A7" stroke-linecap="round" stroke-linejoin="round" stroke-width="2" d="M579.066 84.108c-.89-1.081 9.487-8.326 11.154-9.465 1.665-1.138 10.5 28.41 10.184 31.27-.314 2.86-20.142-20.351-21.338-21.805zM555.756 87.368l3.755-3.296M562.446 94.523l3.756-3.295M568.395 100.498l3.756-3.296M575.273 106.532l3.755-3.296M581.903 113.067l3.755-3.296M587.097 118.197l3.756-3.296M593.03 123.526l3.756-3.296M598.485 128.952l3.756-3.296M605.236 134.614l3.756-3.296M611.008 140.125l3.756-3.295M617.365 145.567l3.755-3.295M218.455 432.38c.088 3.28 92.107 40.456 94.308 38.453 2.2-2.003-67.659-90.248-69.544-91.36-1.884-1.113-24.835 50.275-24.764 52.908z"/>
            <path stroke="#A7A7A7" stroke-linecap="round" stroke-linejoin="round" stroke-width="2" d="M243.212 423.268c-1.223-.684 5.809-11.204 6.946-12.87 1.137-1.666 20.117 22.648 20.864 25.427.747 2.779-26.168-11.639-27.81-12.557zM222.683 434.775l2.3-4.434M231.518 439.009l2.3-4.435M239.234 442.412l2.3-4.435M247.836 445.535l2.3-4.435M256.39 449.213l2.3-4.435M263.095 452.104l2.3-4.435M18.33-4.234s15.32-10.062 18.823 1.313C40.653 8.454 21.83.14 18.33-4.234zM18.33-4.234S7.824 11.953 17.89 11.953c10.069 0 3.502-11.812.439-16.187z"/>
            <path stroke="#A7A7A7" stroke-linecap="round" stroke-linejoin="round" stroke-width="2" d="M18.33-4.234S3.447-16.484 3.009-7.296c-.438 9.187 8.316 10.5 15.32 3.062zM747.632 43.557s-5.369-18.116 7.194-15.96c12.564 2.155.24 15.65-7.194 15.96z"/>
            <path stroke="#A7A7A7" stroke-linecap="round" stroke-linejoin="round" stroke-width="2" d="M747.632 43.557s18.17-2.431 16.393 9.336c-1.776 11.768-15.134-3.877-16.393-9.336zM747.632 43.557s-16.487 10.037-7.415 14.398c9.074 4.361 8.28-9.129 7.415-14.398zM747.632 43.557s-8.1-17.486-12.479-9.397c-4.378 8.09 2.941 13.065 12.479 9.397zM709.817 373.532s-5.369-18.115 7.194-15.96c12.565 2.155.241 15.65-7.194 15.96z"/>
            <path stroke="#A7A7A7" stroke-linecap="round" stroke-linejoin="round" stroke-width="2" d="M709.817 373.532s18.17-2.432 16.393 9.336c-1.776 11.768-15.134-3.877-16.393-9.336zM709.817 373.532s-16.487 10.036-7.414 14.398c9.073 4.36 8.278-9.129 7.414-14.398zM709.817 373.532s-8.1-17.486-12.478-9.396c-4.379 8.089 2.94 13.065 12.478 9.396zM323.225-9.429s-6.77-6.928-11.35-.33c-4.581 6.598 11.929 17.555 20.366 15.895 0 0 9.46-21.607 1.08-24.837-8.38-3.23-10.096 9.272-10.096 9.272zM173.462 375.5s3.104-17.18-6.025-12.706c-9.128 4.473-10.788 37.898-4.413 44.624 0 0 26.79-20.623 25.314-34.263-1.477-13.64-14.876 2.344-14.876 2.344zM169.72 154.067c-3.173 0-6.608 8.453-6.608 8.453s-9.865-.358-9.586 3.33c.229 3.028 6.514 4.882 5.62 7.5 0 0-4.493 7.925-1.586 10.303 2.908 2.378 10.837-5.547 10.837-5.547s3.965 7.397 7.137 5.019c3.172-2.377-.793-10.83-.793-10.83s6.872-2.907 6.608-5.549c-.264-2.642-8.722-3.434-8.722-3.434s-.265-9.245-2.908-9.245zM697.157 205.074c-2.743 1.59-1.47 10.626-1.47 10.626s-8.712 4.637-6.62 7.687c1.718 2.505 8.086.956 8.628 3.67 0 0 .091 9.109 3.8 9.707 3.71.598 6.59-10.233 6.59-10.233s7.142 4.41 8.692.762c1.55-3.647-6.124-8.97-6.124-8.97s4.486-5.96 2.93-8.113c-1.554-2.152-9.268 1.404-9.268 1.404s-4.871-7.865-7.158-6.54zM407.556 405.737c-3.067-.808-8.548 6.489-8.548 6.489s-9.445-2.86-10.117.776c-.552 2.987 5.053 6.382 3.52 8.685 0 0-6.367 6.518-4.163 9.558 2.205 3.04 11.894-2.6 11.894-2.6s1.946 8.161 5.62 6.672c3.673-1.49 1.997-10.674 1.997-10.674s7.387-1.06 7.805-3.68c.42-2.622-7.557-5.545-7.557-5.545s2.104-9.007-.451-9.681zM680.529 118.08s9.844 3.295 13.772-10.2c3.926-13.495-11.488-18.496-20.182-11.149-8.696 7.346 5.403 19.152 10.775 11.908 5.373-7.244-2.218-11.038-4.823-6.656M40.121 466.857s9.845 3.295 13.772-10.2c3.927-13.496-11.488-18.495-20.182-11.15-8.695 7.346 5.404 19.153 10.776 11.908 5.371-7.243-2.219-11.037-4.823-6.655M125.542 285.704c-6.99-4.573-11.473-23.703-5.132-26.197 6.34-2.495 6.642 9.564 6.642 9.564s2.113-9.564 7.548-5.822c5.434 3.743 2.717 11.228 2.717 11.228s3.32-8.317 7.85-1.248c4.529 7.07-7.548 20.376-19.625 12.475zM127.916 287.643s-1.167 14.582-12.256 19.833M569.15 5.102c-8.354.112-22.767-13.248-18.904-18.858 3.862-5.61 10.855 4.221 10.855 4.221s-3.595-9.111 3.005-9.043c6.599.069 8.531 7.793 8.531 7.793s-1.896-8.752 5.812-5.419c7.708 3.333 5.134 21.113-9.299 21.306zM572.203 5.384s7.186 12.745.926 23.292M596.627 361.76c-4.007-7.327 1.063-26.309 7.832-25.522 6.769.787 1.346 11.565 1.346 11.565s6.375-7.439 9.403-1.578c3.027 5.86-2.9 11.182-2.9 11.182s6.852-5.77 7.511 2.598c.66 8.368-16.267 14.413-23.192 1.755zM597.807 364.588s-7.909 12.311-20.165 11.715"/>
            <path fill="#F58B35" d="M123.73 8.618c3.37-2.54 7.627-1.246 8.714 2.4-.981 3.111-3.956 4.696-7.23 5.123-2.052.268-4.048-.183-5.943-1 .552-2.495 2.579-5.105 4.46-6.523m15.243 20.351c-7.954 1.06-16.806-2.239-19.371-10.194 1.254.463 2.514.792 3.752.95 4.774.607 8.96-2.392 9.345-7.022.002.042.009.078.01.119v-.288c.01-.167.029-.331.03-.502 0-.356-.01-.719-.023-1.082l.004-1.184c-.014.112-.038.215-.057.323-.295-3.638-1.643-7.123-6.323-6.286-4.984.893-7.237 6.787-7.345 11.22-2.621-1.184-5.042-3.054-7.134-4.701-3.572-2.813-6.703-6.08-8.615-10.245-2.286-4.982.446-8.43 3.66-12.072a10.111 10.111 0 0 0 2.37-5.043c.001.016.005.031.006.047v-.076c.174-1.072.175-2.162.004-3.223v-.216c-.004.041-.012.08-.018.121-.354-2.073-1.365-4.023-3.085-5.456-3.752-3.126-9.394-4.623-14.007-5.875-5.3-1.439-10.812-1.983-16.29-1.939-.037 0-.018 3.58 0 3.58a63.81 63.81 0 0 1 19.933 3.01c4.26 1.35 11.303 3.515 13.066 8.263-.77 2.108-2.42 3.703-3.942 5.446-2.06 2.358-2.836 5.084-2.889 8.156-.08 4.73.637 8.735 3.43 12.744 3.009 4.322 8.21 8.866 13.576 11.014.193 2.837.825 5.476 2.679 8.009 3.835 5.242 11.148 6.793 17.234 5.982.183-.024-.13-3.563 0-3.58M691.59-19.08c-.334-1.28 1.594-3.231 2.403-3.95 1.497-1.331 3.667-1.385 5.526-1.15 3.745.474 7.531 3.587 8.64 7.23-.66 2.946-2.534 5.236-4.945 7.012-5.303-.993-10.242-3.827-11.625-9.143m63.31-12.728c-8.305-.513-17.331-.539-22.876 6.644-2.773 3.593-4.625 7.241-8.24 10.148-3.451 2.775-7.722 4.395-12.044 5.157-1.68.296-3.534.403-5.42.296a11.318 11.318 0 0 0 2.104-6.25l.001.01v-.047c.002-.067.009-.131.01-.197.015-.956.04-1.874-.018-2.784v-.308c0 .063-.008.124-.01.187-.058-.831-.186-1.656-.458-2.494-1.282-3.933-6.582-6.411-10.373-6.445-5.869-.053-6.798 7.013-6.127 11.456.684 4.534 3.798 7.321 7.693 8.856-2.055.944-4.21 1.65-6.194 2.166-7.719 2.012-16.292 2.167-22.26 8.178-7.006 7.054-5.708 22.198 1.56 28.399-.573-.49.606-3.064 0-3.58-5.899-5.033-7.196-12.535-3.194-19.139 4.825-7.963 15.82-8.36 23.894-10.278 3.545-.842 7.368-2.315 10.33-4.605 2.89.509 5.884.511 8.462.16 9.01-1.231 14.902-7.04 19.599-14.316 5.236-8.11 14.896-8.169 23.561-7.635-.047-.002.1-3.573 0-3.579M177.97 444.664c2.083-4.046 9.864-3.115 13.204-1.586.846.386 1.61.868 2.31 1.412-3.714 2.819-12.978 5.36-15.514.174m23.362-41.48c-5.34-.796-7.535 4.22-7.548 8.689-.015 5.59 2.203 9.79 4.641 14.732 2.958 5.996 1.388 11.92-3.092 16.287a13.163 13.163 0 0 0-1.819-1.904c-2.354-2.02-5.525-2.871-8.564-2.902-2.28-.024-7.26 1.243-7.445 4.166-.018.291-.033.578-.044.863l-.007-.03v.303c-.014.489-.016.965.003 1.423 0 .596 0 1.193.002 1.79.015-.242.048-.47.09-.69.357 2.82 1.744 4.856 5.802 5.264 4.659.468 8.93-1.588 12.044-4.82a11.664 11.664 0 0 1 1.988 10.85c-3.935 12.333-22.478 13.695-23.477 27.781-.076 1.075.069 2.612.01 3.452.586-8.287 8.134-12.789 14.267-17.082 5.749-4.023 10.102-9.116 10.176-16.44.036-3.596-.222-7.006-1.726-9.982 1.619-2.063 2.806-4.463 3.406-6.93 1.048-4.317.481-9.86-1.113-13.872-1.522-3.829-3.894-7.113-4.878-11.173-.918-3.792 4.26-6.646 7.284-6.195-.147-.022.201-3.55 0-3.58M670.72 450.02c-.493.197-.975.352-1.45.475-.47-2.55-.417-5.207.096-7.693 1.001-4.863 5.118-10.055 10.31-8.635 3.507 5.06-4.865 14.21-8.957 15.853m9.709-15.733c-.744-.599-1.577-1.157-2.426-1.706-6.47-4.188-11.21 5.264-11.925 10.186-.403 2.786-.04 5.526.906 8.05-6.432.132-11.152-6.334-14.395-11.401-1.919-2.999-3.645-6.497-6.545-8.688a51.473 51.473 0 0 0-2.663-1.858 25.322 25.322 0 0 1-.222-.156l.04.036c-.287-.19-.572-.381-.859-.567-7.506-4.848-16.09 2.767-21.083 7.634.14-.136 2.756 2.228 2.933 2.054 5.239-5.106 12.692-11.413 20.209-8.027 5.125 5.04 7.472 12.494 13.19 17.203 2.847 2.344 6.155 4.404 9.74 5.296.116.03.228.04.344.064 1.353 2.755 3.412 5.181 5.936 7.012 4.159 3.019 8.354 5.106 13.578 5.632 7.768.781 15.393-2.864 21.549-7.236-.306.218-2.587-2.3-2.934-2.054-8.652 6.145-24.268 11.97-32.855 2.478-1.46-1.615-2.488-3.531-3.138-5.58 6.152.08 10.818-5.393 12.951-10.99 1.247-3.273.01-5.387-2.026-7.123.05.021.099.033.147.055l-.452-.314M37.504 311.812c2.634-3.052 6.697-2.194 8.593 1.728 1.136 2.35.536 4.703-.74 6.829-4.549-1.18-8.565-4.026-7.853-8.557m35.5-6.515c-5.337 6.511-10.957 13.056-19.405 15.31-2.156.574-5.134.521-7.949-.161 2.805-5.67 4.265-12.845-2.79-13.922-2.365-.36-3.815 1.463-4.83 3.425.015-.035.024-.068.039-.104-.034.078-.07.155-.103.233-.41.809-.75 1.633-1.049 2.332-.033.077-.055.152-.086.229l-.113.256c.012-.021.027-.038.04-.059-1.569 4.203.515 7.742 4.349 9.994.548.323 1.117.584 1.698.805a44.121 44.121 0 0 1-2.282 2.228c-6.97 6.378-17.1 8.845-26.249 6.853-.257-.056-1.236 3.321-1.44 3.277 10.72 2.335 21.83-1.523 29.058-9.715.539-.61 1.148-1.421 1.767-2.358 4.404 1.294 9.466.042 13.445-1.88 5.966-2.883 10.356-8.46 14.458-13.466.734-.895.718-2.395 1.442-3.277M706.983 317.278c-.166-3.417 1.866-6.596 5.457-7.227 3.717-.652 7.128 2.923 9.096 5.566 2.767 3.719 2.831 7.097-.005 10.636-5.994-.375-12.097-3.378-14.548-8.975m38.418-.927c-6.196 5.069-13.164 9.396-21.348 9.906l-.15.007c.942-2.803.339-5.88-.6-8.972-1.595-5.257-7.805-12.29-13.802-9.39-4.18 2.019-3.442 7.633-2.234 11.217 1.81 5.362 6.583 8.36 11.81 9.5-2.16 1.659-4.754 2.851-7.186 3.88-4.205 1.776-8.638 3.032-13.232 2.511-4.468-.507-8.147-3.724-11.891-5.91-6.59-3.85-17.77-4.852-20.451 4.288-.245.833.93 2.072.692 2.883 2.057-7.016 9.882-8.238 16.006-6.314 3.403 1.069 6.343 3.205 9.325 5.085 3.386 2.132 6.816 3.187 10.828 2.942 6.303-.383 13.835-3.712 18.382-8.096.272-.262.515-.528.741-.798.521.04 1.042.066 1.56.072 8.406.112 15.99-4.813 22.242-9.927.349-.286-1.01-2.624-.692-2.884M89.007 148.132c-.827 2.85-3.189 4.25-6.197 5.064-2.942.796-6.574.775-7.87-2.098 1.237-4.192 4.555-7.223 8.586-9.342 2.681 1.36 4.786 3.352 5.481 6.376m34.576-2.405c-1.352-6.361-7.757-9.136-13.452-10.655-7.007-1.869-14.517-1.28-21.35.958a31.85 31.85 0 0 0-4.965 2.097c-4.727-2.681-11.536-2.903-16.342-3.708-6.688-1.121-13.394-3.302-17.638-8.9.564.745-.585 2.809 0 3.58 5.122 6.757 13.497 8.278 21.398 9.504 2.661.413 5.945.884 8.98 1.834-2.515 1.968-4.526 4.473-5.462 7.593-.78 2.604-.57 6.914 1.719 8.536 2.203 1.562 6.059.385 8.307-.398 2.555-.89 4.394-3.109 4.493-5.84.04-1.133.062-2.23-.005-3.292v-.224c-.003.028-.009.052-.012.08-.16-2.236-.725-4.317-2.351-6.26-.085-.103-.184-.19-.273-.288 3.893-1.525 8.085-2.357 11.556-2.678 8.504-.789 23.245 1.518 25.397 11.64-.241-1.134.244-2.433 0-3.579M363 444.868c2.814-4.098 11.671-1.975 13.73 2.292-.9 2.599-3.246 4.222-6.196 4.52-3.245.327-6.377-1.501-8.887-3.681.19-1.018.62-2.064 1.352-3.131m7.097 14.35c-3.24-1.484-6.585-4.023-7.94-7.12 3.52 2.76 8.064 4.336 11.97 2.08 2.21-1.277 2.833-3.488 2.99-5.781.004.032.013.063.016.095v-.389c.051-.996.026-2.002.01-2.946-.093-5.392-8.688-6.845-12.581-5.167-2.789 1.202-3.35 4.524-3.433 7.545a29.526 29.526 0 0 1-1.832-1.837c-2.592-2.831-4.637-6.795-3.569-10.614 1.12-3.996 4.34-7.107 8.07-8.687.452-.192-.405-3.408 0-3.58-9.564 4.052-11.054 16.578-5.902 24.648.838 1.311 1.973 2.64 3.294 3.823.431 6.218 4.488 9.484 9.987 12.005 5.087 2.333 11.161 8.41 10.558 14.616-.116 1.185.114 2.402 0 3.58.95-9.765-2.288-17.983-11.638-22.27M369.807-5.187c1.12-2.907 4.36-3.48 7.379-2.512 2.31.74 4.248 3 5.203 5.482-4.462 2.123-11.063 2.02-12.582-2.97m22.361-29.679c.564-.366-.526-3.239 0-3.58-7.36 4.777-6.853 14.725-3.082 21.523 1.621 2.923 2.12 4.595.669 7.657-1.245 2.624-3.573 4.665-5.94 6.245a10.87 10.87 0 0 1-.824.495c-.603-4.327-2.716-8.217-7.488-9.194-4.133-.847-5.622 2.074-5.958 5.252a8.614 8.614 0 0 1-.057-.803l-.005 1.602c-.014.284-.022.566-.02.846 0 .113.013.21.017.32l-.002.568c.007-.043.019-.08.025-.123.492 7.679 7.594 7.971 13.517 4.797.011.342.007.682-.032 1.009-.542 4.638-3.229 8.924-5.548 12.858-2.086 3.539-5.237 7.684-9.838 5.607.424.192-.47 3.368 0 3.58 6.508 2.937 10.425-6.326 12.74-10.78 2.077-3.998 2.819-7.982 2.836-12.364 4.103-2.251 7.596-6.147 7.849-10.375.236-3.939-.014-7.19-1.94-10.776-1.43-2.661-2.864-4.834-2.007-7.857.78-2.749 2.739-4.982 5.088-6.507M751.777 178.47c-1.734 3.431-7.168 5.4-10.387 6.154-2.184.51-4.289.092-6.238-.922-1.082-.563-3.323-2.995-3.094-4.302.576-3.305 4.077-5.375 7.274-6.975 4.655.101 10.394 1.8 12.445 6.045m8.165-20.499c-6.76 3.607-13.534 7.192-20.283 10.821-5.64-.21-11.3 2-16.447 3.997-7.016 2.723-13.735 4.666-21.273 3.159-6.581-1.316-12.447-5.287-16.48-10.573.566.742-.585 2.813 0 3.58 8.022 10.513 20.908 13.198 33.086 9.153 5.065-1.684 9.86-3.97 15.034-5.07a8.206 8.206 0 0 0-1.521 2.781c-.427 1.354-.22 3.076-.213 4.478.037 6.17 4.84 9.008 10.634 7.652 3.062-.717 6.196-2.581 8.479-4.71 1.024-.955 1.297-2.078 1.37-3.28.002.01.007.02.01.03v-.2c.023-.518.017-1.049.017-1.59 0-.131-.014-.255-.02-.383l-.002-1.342c-.01.182-.046.356-.075.532-.574-3.84-3.89-6.124-7.573-7.317l15.257-8.137c.517-.275-.475-3.327 0-3.58M250.574 4.523c-2.182 0-4.002 1.819-4.002 3.999s1.82 4 4.002 4c2.182 0 4.001-1.82 4.001-4 0-2.18-1.82-4-4.001-4M197.027 73.269c-1.792-1.05-4.132-.744-5.599.721a4.638 4.638 0 0 0-1.353 3.266c0 .8.209 1.543.58 2.21.077.33.196.645.371.946.304.514.713.923 1.227 1.227.956.56 2.108.596 3.105.167a4.616 4.616 0 0 0 3.327-2.22c1.273-2.173.511-5.048-1.658-6.317M14.746 36.034c-1.792-1.05-4.132-.744-5.599.722a4.634 4.634 0 0 0-1.354 3.265c0 .8.21 1.543.58 2.211.077.328.197.644.372.946.303.513.712.922 1.226 1.226.956.56 2.108.596 3.106.167a4.616 4.616 0 0 0 3.326-2.22c1.274-2.173.512-5.048-1.657-6.317M85.822 45.688c-2.533 0-2.533 3.926 0 3.926 2.535 0 2.535-3.926 0-3.926M197.56 186.308c-5.254 0-5.254 8.143 0 8.143 5.256 0 5.256-8.143 0-8.143M126.565 204.162c-.41-1.561-1.904-2.669-3.508-2.669s-3.098 1.108-3.508 2.67c-.361 1.375-.053 2.658.91 3.706l.41.448c1.106 1.202 3.27 1.202 4.374 0l.343-.373c.993-1.081 1.356-2.346.979-3.782M155.294 238.098c-3.096 0-3.096 4.8 0 4.8s3.096-4.8 0-4.8M76.415 289.882c-3.096 0-3.096 4.8 0 4.8 3.097 0 3.097-4.8 0-4.8M120.191 347.497c-1.388 0-2.546 1.158-2.546 2.545s1.158 2.546 2.546 2.546 2.546-1.159 2.546-2.546c0-1.387-1.158-2.545-2.546-2.545M225.287 317.207c-.555-.321-1.358-.586-2.01-.535-.628.002-1.214.161-1.758.477-.118.07-.212.165-.32.246a3.216 3.216 0 0 0-.216.167c-.072.063-.149.12-.215.19-.728.703-1.245 1.727-1.158 2.71l.005.062c.002.677.173 1.309.514 1.894a3.775 3.775 0 0 0 2.242 1.724c1.593.438 3.431-.257 4.24-1.724a.784.784 0 0 0 .03-.053c.988-1.793.458-4.11-1.354-5.158M9.24 207.368c-.555-.321-1.357-.587-2.009-.535a3.47 3.47 0 0 0-1.76.476c-.118.07-.21.165-.318.247a3.46 3.46 0 0 0-.216.167c-.072.063-.15.12-.216.19-.728.703-1.244 1.727-1.157 2.71l.005.063c.002.676.172 1.308.512 1.893a3.779 3.779 0 0 0 2.244 1.724c1.592.438 3.43-.257 4.24-1.724l.028-.053c.989-1.792.46-4.11-1.353-5.158M12.376 417.342c-.555-.322-1.357-.587-2.01-.535a3.47 3.47 0 0 0-1.758.476c-.119.07-.212.164-.319.246a3.486 3.486 0 0 0-.217.168c-.071.062-.15.12-.215.188-.728.705-1.245 1.728-1.157 2.712 0 .02.002.04.005.062.002.677.172 1.308.512 1.893a3.777 3.777 0 0 0 2.244 1.725c1.591.437 3.43-.257 4.24-1.725l.028-.052c.989-1.793.46-4.111-1.353-5.158M170.443 420.246a2.184 2.184 0 0 0-1.538-.635c-.574 0-1.13.23-1.537.635-.368.369-.697.996-.636 1.537.02.19.042.382.064.572.064.582.188 1.063.617 1.491.395.395.935.618 1.492.618a2.12 2.12 0 0 0 1.493-.618c.429-.428.553-.91.618-1.49l.064-.573c.06-.54-.269-1.168-.637-1.537M89.004 446.113a2.185 2.185 0 0 0-1.537-.636c-.575 0-1.131.23-1.538.636-.368.368-.697.996-.636 1.536.02.191.042.383.064.574.064.58.188 1.062.618 1.49a2.12 2.12 0 0 0 1.492.618 2.12 2.12 0 0 0 1.492-.617c.429-.43.553-.91.617-1.491l.064-.574c.06-.54-.268-1.168-.636-1.536M341.125 416.87a1.798 1.798 0 0 0-1.72-1.308 1.8 1.8 0 0 0-1.718 1.308c-.228.829.164 1.535.819 2.012l.294.213c.313.228.9.228 1.211 0 .099-.07.197-.142.294-.213.656-.477 1.048-1.183.82-2.012M505.648 382.257c-2.32 0-4.256 1.935-4.256 4.253 0 2.32 1.936 4.255 4.256 4.255 2.32 0 4.257-1.935 4.257-4.255 0-2.318-1.936-4.253-4.257-4.253M647.653 416.418a3.992 3.992 0 0 0-1.422-1.422l-.113-.05a3.9 3.9 0 0 0-1.978-.535c-1.036 0-2.04.416-2.772 1.148a3.915 3.915 0 0 0-1.008 1.728l-.14 1.041a3.9 3.9 0 0 0 .535 1.978l.05.112c.397.89 1.47 1.574 2.37 1.821a4.002 4.002 0 0 0 3.858-1.018 3.977 3.977 0 0 0 1.161-2.803 3.938 3.938 0 0 0-.54-2M652.468 312.887a2.093 2.093 0 0 0-2.075 2.073c0 1.13.944 2.071 2.075 2.071 1.13 0 2.073-.942 2.073-2.07 0-1.131-.943-2.074-2.073-2.074M756.872 220.904c-2.003 0-3.674 1.67-3.674 3.672 0 2.002 1.671 3.673 3.674 3.673s3.674-1.671 3.674-3.673c0-2.001-1.671-3.672-3.674-3.672M545.082 157.998a8.874 8.874 0 0 1-.102-.07c-.652-.435-1.833-.34-2.337.302l.107-.05c-1.068.53-1.068 2.296 0 2.826l-.107-.05c.504.642 1.685.737 2.337.3l.102-.068c1.189-.795 1.189-2.395 0-3.19M663.845 137.835c-2.393 0-2.393 3.708 0 3.708s2.393-3.708 0-3.708M615.764 195.29c-2.394 0-2.394 3.708 0 3.708 2.393 0 2.393-3.708 0-3.708M560.77 264.81c-2.36 0-4.33 1.968-4.33 4.327s1.97 4.327 4.33 4.327c2.36 0 4.33-1.968 4.33-4.327s-1.97-4.327-4.33-4.327M761.053 415.989c-2.36 0-4.329 1.967-4.329 4.326 0 2.36 1.97 4.327 4.33 4.327 2.359 0 4.328-1.968 4.328-4.327s-1.969-4.326-4.329-4.326M684.577 55.04c-6.146 0-6.146 9.525 0 9.525s6.146-9.525 0-9.525M625.195 27.652c-.217-.322-.48-.6-.74-.888-.585-.647-1.67-.594-2.264 0-.593.594-.646 1.677 0 2.263.288.26.567.521.89.738.55.372 1.424.232 1.885-.228.46-.461.6-1.335.229-1.885M765.235 122.74c-.218-.323-.48-.602-.74-.889-.586-.646-1.67-.594-2.265 0-.593.593-.646 1.676 0 2.263.288.26.568.52.89.739.55.37 1.424.23 1.885-.23.461-.46.601-1.334.23-1.883M492.753 55.955c-2.221 0-4.074 1.851-4.074 4.072 0 2.22 1.853 4.072 4.074 4.072 2.222 0 4.075-1.853 4.075-4.072 0-2.22-1.853-4.072-4.075-4.072M317.915 51.389c-2.004 0-3.675 1.67-3.675 3.671 0 2.002 1.671 3.673 3.675 3.673 2.002 0 3.673-1.67 3.673-3.673 0-2.001-1.67-3.671-3.673-3.671M388.837 37.055c-1.407 0-2.644 1.45-2.175 2.853l.087.263c.308.92 1.085 1.588 2.088 1.588 1.002 0 1.78-.668 2.087-1.588l.087-.263c.47-1.403-.768-2.853-2.174-2.853M239.683 124.474l-.465-.863c-.548-1.017-2.008-1.152-2.8-.36-.79.79-.656 2.25.361 2.798l.864.464c1.329.716 2.756-.71 2.04-2.039M221.81 276.536a2.383 2.383 0 0 0-2.041-1.17c-.624 0-1.23.25-1.672.691-.622.622-.79 1.462-.608 2.3l.176.81c.157.73.613 1.153 1.186 1.563.48.345 1.356.345 1.837 0 .508-.363 1.016-.772 1.157-1.427l.204-.946c.137-.634.096-1.251-.238-1.821M457.076 407.68a2.016 2.016 0 0 0-2.02 0c-.668.392-.897 1.002-.99 1.727l-.183 1.407c-.062.477.314.997.703 1.224.585.343 1.228.194 1.719-.222l1.176-.994c1-.845.639-2.53-.405-3.141M576.53 345.324c-1.417 0-2.297 1.572-1.601 2.79l.245.43c.582 1.02 2.132 1.02 2.713 0l.246-.43c.695-1.218-.185-2.79-1.602-2.79M731.298 345.593c-1.418 0-2.297 1.572-1.602 2.79l.246.43c.58 1.02 2.13 1.02 2.713 0 .081-.144.163-.287.246-.43.694-1.218-.186-2.79-1.603-2.79M444.947 54.935l-.668-.175c-.662-.174-1.335.325-1.335 1.017 0 .69.673 1.19 1.335 1.016l.668-.175c.834-.22.834-1.464 0-1.683M68.876 105.551c-.277-.121-.508-.242-.823-.242-.208 0-.437.064-.644.106-1.29.261-1.29 2.333 0 2.594.207.042.436.106.644.106.315 0 .546-.12.823-.242.881-.385.881-1.937 0-2.322"/>
        </g>
    </g>
</svg>
